<?xml version="1.0" encoding="utf-8"?>
<!-- http://webship.org http://drupal.org/project/webship  -->
<!DOCTYPE svg PUBLIC "-//W3C//DTD SVG 1.1 Tiny//EN" "http://www.w3.org/Graphics/SVG/1.1/DTD/svg11-tiny.dtd">
<svg version="1.1" baseProfile="tiny" id="Layer_1" xmlns="http://www.w3.org/2000/svg" xmlns:xlink="http://www.w3.org/1999/xlink"
	 x="0px" y="0px" width="425px" height="425px" viewBox="0 0 425 425" xml:space="preserve">
<path fill="#FFFFFF" d="M395.525,242.788h-2.5v-5.831v-47.969v-5.831h2.5c9,0,21.601-10.101,25.101-20.101c2.8-8,2.8-41.8,0-49.8
	c-1.087-3.104-3.051-6.218-5.509-9.037h0.042c-5.462-6.3-13.397-11.145-19.561-11.145h-2.375l-0.093-4.13l-0.063-13.815
	c-0.5-21.3-1.8-25.601-9.699-33.4c-3.919-3.969-6.956-6.271-11.707-7.644c-4.731-1.423-11.159-1.885-21.964-2.138l-17.43-0.393
	v-2.325c0-8.899-10.1-21.5-20.1-25c-8-2.8-41.8-2.8-49.8,0c-10,3.5-20.101,16.101-20.101,25.101v2.5h-5.776h-48.023h-5.776v-2.5
	c0-9-10.101-21.601-20.101-25.101c-8-2.8-41.8-2.8-49.8,0c-10,3.5-20.1,16.101-20.1,25v2.4l-17.7,0.399
	c-21.3,0.5-25.6,1.801-33.4,9.7c-7.899,7.8-9.199,12.101-9.699,33.4L31.58,88.969h0.007l-0.095,4.188h-2.4
	c-8.899,0-21.5,10.1-25,20.1c-2.8,8-2.8,41.8,0,49.8c3.5,10,16.101,20.101,25.101,20.101h2.5v5.831v47.969v5.831h-2.5
	c-9,0-21.601,10.101-25.101,20.101c-2.8,8-2.8,41.8,0,49.8c3.5,10,16.101,20.1,25,20.1h2.4l0.095,4.188H31.58l0.313,13.839
	c0.5,21.3,1.8,25.601,9.699,33.4c7.801,7.899,12.101,9.2,33.4,9.7l17.7,0.399v2.4c0,8.899,10.1,21.5,20.1,25c8,2.8,41.8,2.8,49.8,0
	c10-3.5,20.101-16.101,20.101-25.101v-2.5h5.776h48.023h5.776v2.5c0,9,10.101,21.601,20.101,25.101c8,2.8,41.8,2.8,49.8,0
	c10-3.5,20.1-16.101,20.1-25v-2.4l17.7-0.399c21.3-0.5,25.6-1.801,33.4-9.7c7.899-7.8,9.199-12.101,9.699-33.4l0.313-13.839
	l-0.25,0.023l0.095-4.212h2.4c8.899,0,21.5-10.1,25-20.1c2.8-8,2.8-41.8,0-49.8C417.126,252.889,404.525,242.788,395.525,242.788z
	 M363.326,286.488c0.3-5,0.8-6.2,3.5-9c3-3,3.699-3.2,10.199-3.2s7.2,0.2,10.2,3.3c3.101,3,3.3,3.7,3.3,10.2s-0.199,7.2-3.3,10.2
	c-3,3.1-3.7,3.3-10.1,3.3c-6,0-7.3-0.3-9.601-2.5C363.726,295.288,363.025,293.088,363.326,286.488z M367.525,127.157
	c2.301-2.2,3.601-2.5,9.601-2.5c6.399,0,7.1,0.2,10.1,3.3c3.101,3,3.3,3.7,3.3,10.2s-0.199,7.2-3.3,10.2c-3,3.1-3.7,3.3-10.2,3.3
	s-7.199-0.2-10.199-3.2c-2.7-2.8-3.2-4-3.5-9C363.025,132.857,363.726,130.657,367.525,127.157z M277.068,37.63
	c3-3.101,3.7-3.3,10.2-3.3s7.2,0.199,10.2,3.3c3.1,3,3.3,3.7,3.3,10.1c0,6-0.3,7.3-2.5,9.601c-3.5,3.8-5.7,4.5-12.3,4.199
	c-5-0.3-6.2-0.8-9-3.5c-3-3-3.2-3.699-3.2-10.199S273.969,40.63,277.068,37.63z M127.492,37.63c3-3.101,3.7-3.3,10.2-3.3
	s7.2,0.199,10.2,3.3c3.1,3,3.3,3.7,3.3,10.2s-0.2,7.199-3.2,10.199c-2.8,2.7-4,3.2-9,3.5c-6.6,0.301-8.8-0.399-12.3-4.199
	c-2.2-2.301-2.5-3.601-2.5-9.601C124.192,41.33,124.393,40.63,127.492,37.63z M57.192,298.788c-2.301,2.2-3.601,2.5-9.601,2.5
	c-6.399,0-7.1-0.2-10.1-3.3c-3.101-3-3.3-3.7-3.3-10.2s0.199-7.2,3.3-10.2c3-3.1,3.7-3.3,10.2-3.3s7.199,0.2,10.199,3.2
	c2.7,2.8,3.2,4,3.5,9C61.692,293.088,60.992,295.288,57.192,298.788z M61.392,139.457c-0.3,5-0.8,6.2-3.5,9
	c-3,3-3.699,3.2-10.199,3.2s-7.2-0.2-10.2-3.3c-3.101-3-3.3-3.7-3.3-10.2s0.199-7.2,3.3-10.2c3-3.1,3.7-3.3,10.1-3.3
	c6,0,7.3,0.3,9.601,2.5C60.992,130.657,61.692,132.857,61.392,139.457z M147.893,388.315c-3,3.101-3.7,3.3-10.2,3.3
	s-7.2-0.199-10.2-3.3c-3.1-3-3.3-3.7-3.3-10.1c0-6,0.3-7.3,2.5-9.601c3.5-3.8,5.7-4.5,12.3-4.199c5,0.3,6.2,0.8,9,3.5
	c3,3,3.2,3.699,3.2,10.199S150.992,385.315,147.893,388.315z M297.469,388.315c-3,3.101-3.7,3.3-10.2,3.3s-7.2-0.199-10.2-3.3
	c-3.1-3-3.3-3.7-3.3-10.2s0.2-7.199,3.2-10.199c2.8-2.7,4-3.2,9-3.5c6.6-0.301,8.8,0.399,12.3,4.199c2.2,2.301,2.5,3.601,2.5,9.601
	C300.769,384.615,300.568,385.315,297.469,388.315z M262.369,334.516c-10,3.5-20.101,16.1-20.101,25.1v2.5h-5.118h-49.34h-5.118
	v-2.5c0-9-10.101-21.6-20.101-25.1c-8-2.8-41.8-2.8-49.8,0c-10.1,3.5-20.1,16.1-20.1,25.2c0,2.7,0,2.7-5.7,2
	c-11.003-1.255-20.861-10.896-22.707-21.726c-0.071-0.508-0.138-1.011-0.193-1.502c-0.7-5.7-0.7-5.7,2-5.7
	c9.101,0,21.7-10,25.2-20.1c2.8-8,2.8-41.8,0-49.8c-3.5-10-16.1-20.101-25.1-20.101h-2.5v-5.173V188.33v-5.173h2.5
	c9,0,21.6-10.101,25.1-20.101c2.8-8,2.8-41.8,0-49.8c-3.5-10.1-16.1-20.1-25.2-20.1c-2.7,0-2.7,0-2-5.7
	c0.056-0.491,0.122-0.994,0.193-1.502c1.846-10.829,11.704-20.471,22.707-21.726c5.7-0.7,5.7-0.7,5.7,2c0,9.101,10,21.7,20.1,25.2
	c8,2.8,41.8,2.8,49.8,0c10-3.5,20.101-16.1,20.101-25.1v-2.5h5.118h49.34h5.118v2.5c0,9,10.101,21.6,20.101,25.1
	c8,2.8,41.8,2.8,49.8,0c10.1-3.5,20.1-16.1,20.1-25.2c0-2.7,0-2.7,5.7-2c0.647,0.074,1.308,0.183,1.971,0.3
	c10.072,2.208,18.746,11.257,20.466,21.344c0.071,0.508,0.137,1.011,0.193,1.502c0.7,5.7,0.7,5.7-2,5.7
	c-6.316,0-14.316,4.819-19.792,11.145h0.097c-2.446,2.809-4.396,5.917-5.478,9.037c-2.8,8-2.8,41.8,0,49.8
	c3.5,10,16.1,20.101,25.1,20.101h2.5v5.173v49.285v5.173h-2.5c-9,0-21.6,10.101-25.1,20.101c-2.8,8-2.8,41.8,0,49.8
	c3.5,10.1,16.1,20.1,25.2,20.1c1.578,0,2.229,0.009,2.362,1.147c-0.017,0.843-0.167,2.075-0.39,3.886
	c-0.057,0.491-0.122,0.994-0.193,1.502c-1.846,10.829-11.705,20.471-22.707,21.726c-3.509,0.431-4.854,0.594-5.373,0.027
	c-0.054-0.348-0.057-0.791-0.057-1.36c0-9.101-10-21.7-20.1-25.2C304.169,331.716,270.369,331.716,262.369,334.516z"/>
</svg>
